<svg width="18" height="18" viewBox="0 0 18 18" fill="none" xmlns="http://www.w3.org/2000/svg">
	<path d="M8.996 11.543c.636 0 1.246-.268 1.696-.745s.703-1.123.703-1.798c0-.674-.253-1.32-.703-1.798a2.33 2.33 0 0 0-1.696-.744 2.33 2.33 0 0 0-1.696.744A2.62 2.62 0 0 0 6.597 9c0 .675.253 1.321.703 1.798s1.06.745 1.696.745" stroke="#fff" stroke-width="1.5" stroke-miterlimit="10" stroke-linecap="round" stroke-linejoin="round"/>
	<path d="M1 9.746V8.254c0-.881.68-1.61 1.52-1.61 1.447 0 2.038-1.085 1.31-2.416-.415-.763-.167-1.754.56-2.195l1.384-.839c.631-.398 1.447-.161 1.823.509l.088.16c.72 1.331 1.903 1.331 2.63 0l.088-.16c.376-.67 1.192-.907 1.823-.509l1.384.84c.727.44.975 1.431.56 2.194-.728 1.33-.136 2.416 1.31 2.416.832 0 1.52.72 1.52 1.61v1.492c0 .881-.68 1.61-1.52 1.61-1.447 0-2.038 1.085-1.31 2.416.415.771.167 1.754-.56 2.195l-1.384.839c-.631.398-1.447.161-1.823-.509l-.088-.16c-.72-1.331-1.903-1.331-2.63 0l-.088.16c-.376.67-1.192.907-1.823.509l-1.384-.84a1.6 1.6 0 0 1-.708-.974 1.7 1.7 0 0 1 .149-1.22c.727-1.33.136-2.416-1.312-2.416-.84 0-1.519-.729-1.519-1.61" stroke="#fff" stroke-width="1.5" stroke-miterlimit="10" stroke-linecap="round" stroke-linejoin="round"/>
</svg>
